<?xml version="1.0" encoding="UTF-8"?>
<svg id="_レイヤー_1" data-name="レイヤー_1" xmlns="http://www.w3.org/2000/svg" version="1.1" viewBox="0 0 149.6 207">
  <!-- Generator: Adobe Illustrator 30.5.1, SVG Export Plug-In . SVG Version: 2.1.4 Build 3)  -->
  <defs>
    <style>
      .st0 {
        fill: #efefec;
      }

      .st0, .st1 {
        stroke: #000;
        stroke-miterlimit: 10;
      }
    </style>
  </defs>
  <path class="st1" d="M92.8,202c-1.6,3-5.7,3.5-8.6,4s-8,.9-11.4-1.3-2-4.2-2.2-6.5l-.5-8.6-.9-15.8c-.2-2.9-1.4-5.2-3.1-7.3l-3.4-4.3-9.7-13.5-11.3-16.1-17.5-25.1c-2.5-3.5-2.6-10,1.3-12.4s8.2-3.8,12.7-4.7l2.7-.5,3.5-.7,7.1-1.1,7.3-.9,12.1-.5h22.1s12.7.5,12.7.5l7.7,1,5.8.9,4.7,1,4.3,1,2.9.8,6.5,2.5c2.4.9,4.6,3.7,4.2,6.3l-.6,4.9-4.7,7-26.8,38.4-9.8,13.8-2.6,3.2c-1.4,1.7-1.7,3.7-1.8,5.9l-.4,7.2-.8,10.1c-.3,3.5.3,7.5-1.5,11ZM88.7,109.1l8.9-.5,7.9-.4,13.2-1.6,4.6-.7c4.9-.7,14.4-3.1,14.2-5.4s-6.3-4.3-10.1-5.1l-5.2-1.1-5.8-1-5.8-.7-4.4-.7-9.5-.4-8.2-.5c-5.6-.3-10.8-.3-16.4.4l-13.3.5-3.9.7-7.7.8-5.4.8-5.1,1.2c-3.6.9-7,1.6-9.7,4.9,2.2,2,4.8,3,7.4,3.6l4.9,1.3,5.6,1,7.8,1,9.1,1,8.8.4,13.7.4h4.6ZM91.6,168l9.3-13.1,2.9-3.8,18.2-25.9,11.6-16.8-7.2,1.6-5.3,1-7.3,1c-2.3.3-4.7.5-7.2.7l-7.8.8h-30c-3.1,0-6.1-.5-9.3-.8l-7.7-.7-8.2-1c-4.5-.6-8.2-2.1-13-2.4l11.2,16.6,7.1,9.7,11.1,15.7,2.7,3.5,3.4,4.8,2.8,3.9c1.4,1.9,4.1,4.1,4.2,6.6l.4,9,.8,11.6.4,7.7c0,1,.6,3.5,1.6,3.7,4.6.7,10.9.8,12.8-2.2l.9-15.3.3-10.5,1-5.3Z"/>
  <path class="st1" d="M83.3,37.4l-2.9,4c-1.2,1.6-3,3.3-5,1.8s-2.5-3.3-3.2-5.7h-10.3c-2.7,0-5.6-1.8-5.6-4.8V5.2c0-1.9,2.8-4.6,4.8-4.6h32.1c3.4,0,4.9,3.1,4.9,6.1l.2,8.7v17.2c.1,2.8-2.4,4.9-5,4.9h-10ZM77,37.5c.4-.3,1.4-1.3,1.9-1.9l2.4-2.9h11.9c0,0,0-25.6,0-25.6l-1.5-1.4h-30c-.8,1.6-1.4,3.2-1.3,4.7l.4,5.4.3,12.8.4,4h12.1c0,0,3.3,4.8,3.3,4.8Z"/>
  <path class="st1" d="M138.8,61.8c-1.1,3.7-5.1,2.9-7.2,2.3l-12.6-3.6-9.4-2.7c-1.2-.3-2.6-1.7-3-2.6-.6-1.4-.2-3.2.2-4.7l6.5-22.8,1.7-6.2c.4-1.5,1-4.2,2.3-5.1,3-2.1,6.2-.9,9.2-.1l3.8,1,4.2,1.1,12.1,3.5c1.7.5,2.8,3.4,2.4,4.9l-10.2,34.9ZM133,59.7c1.4.4,1.9-.3,2.2-1.4l9.2-32.4-9.5-2.8-9.5-2.3-4.1-1.2c-.7.2-1.6,1.9-1.9,3l-2,7.5-3.1,11-2.5,8.6c-.3,1-.9,3-.2,3.7s2.2.8,3.2,1.1l8.9,2.5,9.3,2.6Z"/>
  <path class="st1" d="M19.7,60.9c-1.4.5-3.1-.4-3.1-2s-.9-3.3-2.7-3.6C4.5,53.1-1.3,44.1,1,35.9c2.3-8.2,7.5-12.7,16-14.9s6.8-.6,10,0c7.2,1.2,12.8,5.8,15,12.9,1.9,6.4-2.1,16.9-10.5,19.5-1.9.6-4.2.8-5.5,2.7s-3.7,3.8-6.3,4.7ZM20.8,55.6c2.1-.2,2.3-4,6.7-5.3,4.5-1.4,8.7-4.4,10-9s-1.8-12.2-7.3-14.7-10.8-2.4-16,.3c-3.3,1.7-6.9,4.1-8.3,8s-.9,6.1,0,8.4c2,5.5,7.4,8.4,13.2,8.5l1.8,3.8Z"/>
  <path class="st1" d="M80.2,73.5c0,.9-1.6,2-2.2,2.2s-2.3-1.2-2.5-2.2l-.2-18.1c0-.7.5-1.9.9-2.3s2.3-.7,2.8-.3c.4.8,1.1,2.5,1.1,3.3v17.4Z"/>
  <path class="st1" d="M42.5,79.2l-2.5-3.8-4.3-7.2c-.5-.8.8-2.5,1.7-2.6,1.4-.2,2.2.4,2.9,1.5l6.2,9.7c.8,1.3.7,2.6-.4,3.4s-2.7.3-3.7-1.1Z"/>
  <path class="st1" d="M117.7,75.5c-.9,2.2-1.5,4.8-4,5.5s-2.2-.7-2.3-1.4,0-2.3.4-3l3.9-7.7c.3-.7,1.5-1.4,2.2-1.5s2.1,1.4,2,2.3c-.3,1.9-1.4,3.7-2.2,5.8Z"/>
  <path class="st0" d="M91.6,168l-1,5.3-.3,10.5-.9,15.3c-1.9,3-8.3,3-12.8,2.2s-1.6-2.6-1.6-3.7l-.4-7.7-.8-11.6-.4-9c-.1-2.4-2.8-4.6-4.2-6.6l-2.8-3.9-3.4-4.8-2.7-3.5-11.1-15.7-7.1-9.7-11.2-16.6c4.8.3,8.5,1.8,13,2.4l8.2,1,7.7.7c3.2.3,6.1.8,9.3.8h30s7.8-.8,7.8-.8c2.4-.2,4.8-.4,7.2-.7l7.3-1,5.3-1,7.2-1.6-11.6,16.8-18.2,25.9-2.9,3.8-9.3,13.1Z"/>
  <path class="st0" d="M88.7,109.1h-4.6s-13.7-.4-13.7-.4l-8.8-.4-9.1-1-7.8-1-5.6-1-4.9-1.3c-2.6-.7-5.3-1.7-7.4-3.6,2.7-3.3,6.1-4.1,9.7-4.9l5.1-1.2,5.4-.8,7.7-.8,3.9-.7,13.3-.5c5.6-.8,10.8-.8,16.4-.4l8.2.5,9.5.4,4.4.7,5.8.7,5.8,1,5.2,1.1c3.8.8,9.9,3.1,10.1,5.1s-9.3,4.7-14.2,5.4l-4.6.7-13.2,1.6-7.9.4-8.9.5Z"/>
  <path class="st0" d="M77,37.5l-3.3-4.7h-12.1c0,0-.4-4.1-.4-4.1l-.3-12.8-.4-5.4c-.1-1.5.4-3.2,1.3-4.7h30s1.5,1.4,1.5,1.4v25.5s-11.9,0-11.9,0l-2.4,2.9c-.5.6-1.4,1.6-1.9,1.9Z"/>
  <path class="st0" d="M133,59.7l-9.3-2.6-8.9-2.5c-1-.3-2.6-.5-3.2-1.1s-.1-2.8.2-3.7l2.5-8.6,3.1-11,2-7.5c.3-1.1,1.2-2.8,1.9-3l4.1,1.2,9.5,2.3,9.5,2.8-9.2,32.4c-.3,1.1-.8,1.8-2.2,1.4ZM137.2,33.9c.7-1.2.6-2.8,0-3.2s-2-.8-3-1.1l-7.4-2.2c-1.3-.4-2.5-.8-3.5,0s-1.1,3.1-.2,3.4l4.6,1.4,3,.9c2.1.6,4.3,1.1,6.7,1ZM132.8,42.6c1.4.4,2.7-1.2,2.6-2.1s-1.1-1.9-1.9-2.2l-10.6-2.9c-.7-.2-2.1.5-2.5,1.1s-.2,2,.2,2.4l12.2,3.7ZM126,45.7l-5.8-2c-1.6-.6-2.9,3.5-1.5,3.8l7.2,1.9c.8-1,.9-3.2.2-3.7Z"/>
  <path class="st0" d="M20.8,55.6l-1.8-3.8c-5.8-.1-11.2-3-13.2-8.5s-.8-6.1,0-8.4c1.4-3.9,5-6.3,8.3-8,5.3-2.7,10.7-2.8,16-.3s9.1,8.4,7.3,14.7-5.5,7.6-10,9c-4.4,1.4-4.6,5.1-6.7,5.3ZM30.8,39.6c1.1-.4,1.7-2.2,1.2-3.2s-1.7-2.4-3.1-1.8-1.9,1.7-2.4,2.4c.2,1.8,2.1,3.4,4.2,2.5ZM20.4,36.6c-1.2.5-1.4,2.6-.6,3.5s2.5.9,3.3.3,1.2-2.2.7-3-2.2-1.4-3.4-.8ZM16.2,39.5c-.1-.9-1.6-2.4-2.8-2.5s-2.3,1.3-2.4,2.2.5,2.4,1.2,2.7c1.7.8,3.3-.4,4-2.4Z"/>
  <path class="st1" d="M132.8,42.6l-12.2-3.7c-.5-.4-.5-2-.2-2.4s1.8-1.2,2.5-1.1l10.6,2.9c.9.2,1.9,1.5,1.9,2.2s-1.2,2.5-2.6,2.1Z"/>
  <path class="st1" d="M137.2,33.9c-2.3,0-4.5-.4-6.7-1l-3-.9-4.6-1.4c-.9-.3-.6-2.8.2-3.4s2.3-.3,3.5,0l7.4,2.2c1,.3,2.1.5,3,1.1s.8,2.1,0,3.2Z"/>
  <path class="st1" d="M126,45.7c.7.6.6,2.8-.2,3.7l-7.2-1.9c-1.3-.4,0-4.4,1.5-3.8l5.8,2Z"/>
  <path class="st1" d="M30.8,39.6c-2.1.9-4-.7-4.2-2.5.5-.8,1.6-2.1,2.4-2.4,1.4-.6,2.6.7,3.1,1.8s-.2,2.7-1.2,3.2Z"/>
  <path class="st1" d="M16.2,39.5c-.6,2-2.2,3.2-4,2.4s-1.3-1.9-1.2-2.7,1.4-2.3,2.4-2.2,2.7,1.7,2.8,2.5Z"/>
  <path class="st1" d="M20.4,36.6c1.2-.6,2.8-.2,3.4.8s0,2.4-.7,3-2.7.4-3.3-.3-.6-3,.6-3.5Z"/>
</svg>