<?xml version="1.0" encoding="UTF-8"?>
<svg id="_レイヤー_1" xmlns="http://www.w3.org/2000/svg" version="1.1" viewBox="0 0 177 196">
  <!-- Generator: Adobe Illustrator 30.5.1, SVG Export Plug-In . SVG Version: 2.1.4 Build 3)  -->
  <defs>
    <style>
      .st0, .st1 {
        stroke: #000;
        stroke-miterlimit: 10;
        stroke-width: 2px;
      }

      .st1 {
        fill: none;
      }
    </style>
  </defs>
  <path class="st0" d="M83.6,74.7c.6,1.1,1,2.6.2,3.8s-2,1.6-3.4,1.6h-18.7c-2.3.4-3.8-1-4.8-3.2v-14.7c.6-.7,1.1-1.3,1.6-1.5s1.6.3,2.2.4c1.1.2,2.6-.7,3.2-1.7s.4-2.1,0-2.7c-.7-1.3-2.4-2.5-3.8-1.8l-3.2,1.5c-1.7,2.2-3.9,2.8-6.6,2.7s-6.7-1.9-8-5.4l-.6-2.1c-.4-1.4-.3-2.5,0-3.9.8-3.6,3.3-6.3,6.8-7.2s3.1-.8,4.6,0l2,1.1c.2,0,.6.2.8,0,.8-.4,0-2.6-.7-4.4l-.3-11.6c0-2.8,1-5.5,4.3-6s5.6-.2,8.4-.2h11c-.4-1-.7-1.6-1.2-2.4-1.3-2.1-2-4.5-1.5-6.9s.5-2.4,1.3-3.6c3.6-5.6,11.1-7.1,16.7-3.6s5.1,6.6,4.2,11.6c-.4,2.1-2.5,3.5-2,4.9h17c.8,0,2.2.6,2.8,1.1l1.2,2.3v18.8c4-3,8.9-3.2,12.3,0,3.4,3.2,3.7,6,2.9,9.8-1.6,4.7-4.8,7.6-9.9,7s-3.2-.7-4.8-2c-1,.9-.9,2.2-.8,3.5s0,2.3,0,3.5v4.1l.5,1.3v6.2l-.6,1.6c-.8,2.3-2.5,3.5-4.8,3.4s-5.3.3-8,.4h-7.5c-.7,0-2-.4-2.6-.7-1.7-.8-1.9-2.8-1.1-4.3s1.1-4.3,0-6.2-2.2-2-3.5-2.3c-2-.5-4,.5-5.1,1.9s-1.6,4-.6,5.9h.2ZM87,63.8c3.7-.8,8.9,2,9.7,6.5s0,3.1,0,4.4l-.4,2.2h15.2c.6,0,1.5-.4,1.8-.8s.9-5.8.3-8.3c.3-1.3.3-2.5,0-3.8v-6.2c0-1.4,1.3-3.7,3.3-3.9s2.3.2,3.4.9c2.9,1.9,6.4,1,8.2-1.9,1.8-2.9.8-8.1-2.5-9.3-4.9-1.8-6.7,1.8-8.7,1.6s-3.2-2.1-3.2-4.2v-16.7c-.2-.4-.8-.9-1.2-1.1h-17.1c-.9-.3-2-.9-2.5-1.7s-.7-2.8,0-3.7c1.3-1.9,2.3-3.8,2.2-6.1,0-3.3-2.5-5.8-5.7-6.6-4.8-1.1-9.6,1.4-10.2,6.4-.6,5,.7,4.2,1.9,6s1,2.9.2,4.1-2.1,1.7-3.6,1.7h-14.9l-2.7.2c-.5,0-1.8.4-1.8,1.1v12.4c.8,1.7,1.2,3.5,1.3,5.3-.3,1.1-.5,2.1-1.2,2.7s-1.9,1.2-2.8.7c-2.9-1.6-4.2-3.2-8-1s-2.6,2.3-2.8,4.3.3,4.3,2.1,5.7c2.8,2.2,5.6,2,8.3-.4s2.5-1.9,4.1-1.7c1.1-.7,2.4-.6,3.6,0l1.4.7c1.9,1,2.9,3,2.6,5.1-.4,3.5-3.1,6.2-6.9,5.4-.2,1.5,0,2.9,0,4.4v7.6l1.5,1.3h18.1c.3,0,1-.5,1-.8-1.5-2.5-1.3-5.6,0-8.2s3.5-3.6,6.1-4.1h-.2Z"/>
  <path class="st1" d="M87,63.8c-2.6.6-4.8,1.8-6.1,4.1s-1.6,5.6,0,8.2c0,.3-.7.8-1,.8h-18.1l-1.4-1.3v-7.6c0-1.5-.3-2.9,0-4.4,3.8.7,6.5-1.9,6.9-5.4s-.7-4.1-2.6-5.1l-1.4-.7c-1.2-.5-2.4-.6-3.6,0-1.7-.2-2.9.6-4.1,1.7-2.7,2.4-5.5,2.7-8.3.4s-2.3-3.6-2.1-5.7,1.1-3.3,2.8-4.3c3.7-2.2,5.1-.6,8,1s2.1,0,2.8-.7,1-1.6,1.2-2.7c0-1.8-.5-3.5-1.2-5.3v-12.4c0-.6,1.2-1,1.7-1.1l2.7-.2h14.9c1.5,0,2.8-.5,3.6-1.7s.6-2.9-.2-4.1c-1.2-1.8-2.2-3.8-1.9-6,.6-4.9,5.4-7.5,10.2-6.4s5.6,3.2,5.7,6.6-.9,4.2-2.2,6.1-.5,2.8,0,3.7,1.6,1.4,2.5,1.7h17.1c.4.2,1,.7,1.3,1.1v16.7c0,2.1.7,3.9,3.1,4.2s3.8-3.4,8.7-1.6c4.9,1.8,4.6,6.1,2.5,9.3s-5.3,3.8-8.2,1.9-2.1-1-3.4-.9c-1.9.3-3.2,2.5-3.2,3.9v6.2c.3,1.3.3,2.5,0,3.8.6,2.4,0,7.8-.3,8.3s-1.2.7-1.8.7h-15.2l.4-2.2c.2-1.2.3-3.1,0-4.4-.8-4.4-6-7.2-9.7-6.5v.2Z"/>
  <path d="M90.8,135.9c0,1-1.6,1.7-2.3,1.7s-2.7-.7-2.7-1.6v-23.5c0,0-4.8-.5-4.8-.5H27.9l-3.8.7v23.7c-.4,1.6-5.1,1.6-5.1-.3v-26.6c-.1-1.4,2.2-2.9,3.6-2.9h63.2v-21.8c0-1.2,1.8-2.2,2.7-2.1,1.8.2,2.4,1.4,2.4,3.2v20.7h64.5c.9.6,2,1.6,2.5,2.4v27.1c-1,.7-2.3,1.4-3.1,1.4s-2.1-1.6-2.1-2.6v-22.1c.1-.3-.8-.6-1.3-.9h-57.8c-.9,0-2.6.7-2.7,1.4v22.5h0Z"/>
  <path d="M43.1,190.5c0,2.7-3.3,5.4-5.7,5.4H4.8c-1.9,0-4.8-3.3-4.8-5.1v-42.3c0-2.3,3-4.8,5.2-4.8h34.1l3.1,3.2c.8.8.7,3.5.7,4.9v38.7h0ZM7.9,190.7h28.1c.9,0,1.9-1,1.9-1.9v-39.9H8.1c-1.1,0-2.2.3-3.3.7v38.3c0,.8.3,2,.7,2.4s1.5.5,2.4.5h0Z"/>
  <path d="M172,195.8h-33.4c-1.7-.5-3.5-2.3-4.8-3.8v-44.5c.6-1.7,2.7-2.8,4.3-3.9h34.7c1.6.7,3.5,2.7,4.2,4.5v42.6c0,1.8-3.1,5.1-5,5.1ZM169.6,190.8c1.2,0,2.2-1,2.2-2v-39.6c-5.4-.9-10-.5-14.9-.5h-11.4c-2.4,0-4.6-.6-6.8.9v37.7c0,.9,0,3.3,1.4,3.3h29.5v.2Z"/>
  <path d="M105,196h-33.2c-1.8-.6-4.8-2.6-5-5v-42.2c0-2.3,3.1-5.1,5-5.1h33.8c1.5,0,3.6,2.5,4.3,3.9v44.1c-.7,2-2.9,3.5-4.8,4.3h-.1ZM103.2,190.7c.9,0,1.9-1,1.9-1.9v-38.9c-.2-.5-1.4-1.4-1.9-1.4l-15,.2-14.3.2c-.8,0-1.8,1.1-1.8,2v37c0,.8.3,2,.7,2.4s1.5.5,2.1.5h28.4,0Z"/>
  <path d="M21.3,182.5c1,0,2.3-1.8,2.2-2.6s-.8-2.1-1.9-2.8-3.6.2-4.8,0c-2.6-.5-5.2.5-5.9,3.1.2,1,1.9,2.5,2.9,2.5h7.5v-.2Z"/>
  <path d="M30,162.8l-17.1-.2c-.7,0-2-1.6-2.1-2.4s1.1-2.5,1.8-2.5h17.6c.8,0,1.9,1.7,1.9,2.5s-1.2,2.5-2.1,2.5h0Z"/>
  <path d="M30.8,172.3H13.1c-.8,0-2-1.4-2.2-2.1s1-2.6,2-2.6h18.3c1.1.8,1.2,4.2-.4,4.7h0Z"/>
  <path d="M73.5,166.8h-7.5c-1,.1-2.6-1.4-2.9-2.4.7-2.6,3.3-3.6,5.9-3.1s3.5-.7,4.8,0,1.9,1.9,1.9,2.8-1.3,2.6-2.2,2.6h0Z"/>
  <path d="M163.7,162.7h-17c-.8,0-1.8-1.8-1.9-2.5s1-2.5,2.1-2.5h17.2c.8,0,1.9,1.7,1.8,2.5s-1.3,2.6-2.3,2.6h0Z"/>
  <path d="M164,172.5h-16.8c-1.2,0-2.2-1.1-2.4-2.2s.9-2.6,2-2.6h17.8c.6.6,1.3,1.9,1.3,2.6s-1.2,1.9-2,2.3h0Z"/>
  <path d="M155.6,182.4h-8.6c-.8,0-1.8-1.5-2.1-2.1s.7-2.4,1.5-2.4h10.1c1.6.1,1.2,4.6-.9,4.6h0Z"/>
  <path d="M97,162.7l-16,.2c-1.4,0-2.9-.8-3.2-2.2s1.4-3,2.7-3h16.5c.8,0,1.9,1.4,2,2.1s-.9,2.9-2.1,2.9h0Z"/>
  <path d="M97.9,172.3l-18.2.2c-.8,0-1.8-1.6-2-2.3s.7-2.5,1.5-2.5h19.1c1.2.6,1.3,4.4-.4,4.6Z"/>
  <path d="M89.4,182.3h-9.8c-.9-.7-2-2.1-1.8-2.8,1-3.2,4.7-.7,9.6-2.7l3.2,1.3c.5,1.2.2,4.2-1.3,4.2h.1Z"/>
</svg>