<?xml version="1.0" encoding="UTF-8"?>
<svg id="_レイヤー_1" data-name="レイヤー_1" xmlns="http://www.w3.org/2000/svg" version="1.1" viewBox="0 0 148.8 199.9">
  <!-- Generator: Adobe Illustrator 30.5.1, SVG Export Plug-In . SVG Version: 2.1.4 Build 3)  -->
  <defs>
    <style>
      .st0 {
        fill: none;
        stroke: #000;
        stroke-linecap: round;
        stroke-linejoin: round;
        stroke-width: 6px;
      }

      .st1 {
        fill: #efefec;
      }
    </style>
  </defs>
  <path d="M148.4,190.4c0,4.5-5.2,9.3-9.7,9.3H9.9c-5.1-1.3-8.8-5.1-9.9-10.3V38.3c0-4.4,4.9-9.3,9-9.4l23.7-.4,1.3-4.7c1-3.8,4.6-4.6,7.9-4.6h14s.8-4.5.8-4.5c.2-1.4,1.2-3.6,1.9-4.9,2.3-4.7,6.2-7.3,11-8.8s6.6-1.4,10.1,0l4.2,1.8c4.7,2,8.6,10.1,9.1,16.4h13.7c2.6,0,5.3.4,6.8,2.2s2.4,4.1,2,7.1l24.3.3c4,0,8.7,4.3,8.8,8.4l.3,71.7v8.9s-.4,72.6-.4,72.6ZM109.7,38.8l.2-10.4c0-.8-.9-2.6-1.5-3.2h-16.9c-1.3-.3-3.5-2.2-4.5-3.2,1.1-6.6-2.4-13-8.6-15.1s-10.6,0-13.6,4.1c-2.3,3.2-3.4,6.4-2.5,10.6-.8,1.1-2.7,3-4,3.6h-16.4c-1.6,0-2.8,1.1-2.7,2.7l.2,11h70.3ZM142.8,189.5V39.4c0-6-9.3-4.6-9.6-4.6l-3.6-.4h-13.9c0,0-.3,7-.3,7-.7,1.5-3.7,3.7-5.5,3.7h-17.6c0,0-14.3-.2-14.3-.2h-7.8s-19-.4-19-.4c-3.4,0-6.4-.4-9.8.1s-6.1-.5-7.6-3.3v-4.3c0-1.2-.9-2.7-2.2-2.7l-13.1.2-8.3.6c-2.1.1-4.6,3-4.6,5.4v13.2c.1,0,.5,13.3.5,13.3v5s0,5.5,0,5.5l.2,31.1.2,15.5-.6,7.1c-.5,6.4,0,12.2.3,18.6l.2,5.4v15.7s0,6.1,0,6.1l.3,12.6c0,1.5,2.4,4.2,4.5,4.2h125.9c3,0,4.4-1,5.7-4.4Z"/>
  <path class="st1" d="M109.7,38.8H39.3s-.2-11-.2-11c0-1.6,1.1-2.7,2.7-2.7h16.4c1.3-.6,3.2-2.4,4-3.6-.8-4.1.2-7.4,2.5-10.6,3-4.2,8.4-5.9,13.6-4.1s9.7,8.5,8.6,15.1c1,1,3.2,2.9,4.5,3.2h16.9c.6.7,1.5,2.4,1.5,3.3l-.2,10.4ZM74.3,24c3.7,0,5.4-3.2,5.3-6.1s-2.5-5.3-5.5-5.2-5.2,2.8-5.2,5.8,2.1,5.5,5.4,5.6Z"/>
  <path d="M43.9,169.9c-4.8,4.1-12.1,4.1-17.3-.5s-3-3.6-3.7-6.1c-1.7-5.9,1.3-12.6,6.6-15.4,4.3-2.3,8.1-2.3,12.2,0,4.2,2.2,6.6,6.2,7,11.1.4,4.4-1.5,8.1-4.9,11ZM31.9,166.6c2.9,1.6,4.9,1.5,7.8-.2s5.2-8,2.3-11.7-3.8-3.8-6-3.8c-4.6,0-9.6,5.3-8.1,11s1.8,3.5,4,4.7Z"/>
  <path d="M45,110.2c5.3,5.4,4.7,14.5-.2,18.5-5.6,4.7-13.1,4.6-18.4-.5s-4.7-8.3-3.3-13,4.9-7.7,9.9-9.2c4.3-1.3,8.8,1.1,11.9,4.3ZM41.8,114.6c-2.4-3.5-6.9-4.8-10.7-2.1s-4.3,9.5-.6,12.6c2.9,2.4,6.2,2.7,9.2,1s4.6-8,2.2-11.5Z"/>
  <path d="M45,68.4c5.3,5.4,4.7,14.5-.2,18.5-5.6,4.7-13.1,4.6-18.4-.5s-4.7-8.3-3.3-13,4.9-7.7,9.9-9.2c4.3-1.3,8.8,1.1,11.9,4.3ZM41.8,72.7c-2.4-3.5-6.9-4.8-10.7-2.1s-4.3,9.5-.6,12.6c2.9,2.4,6.2,2.7,9.2,1s4.6-8,2.2-11.5Z"/>
  <path d="M74.3,24c-3.2,0-5.4-3.1-5.4-5.6s1.8-5.6,5.2-5.8,5.4,2.6,5.5,5.2-1.6,6.2-5.3,6.1Z"/>
  <path class="st1" d="M31.9,166.6c-2.2-1.2-3.4-2.3-4-4.7-1.5-5.7,3.4-10.9,8.1-11,2.2,0,4.6,2,6,3.8,2.9,3.7,1.4,9.5-2.3,11.7s-4.8,1.8-7.8.2Z"/>
  <path class="st1" d="M41.8,114.6c2.4,3.5,1.7,9.3-2.2,11.5s-6.3,1.4-9.2-1c-3.7-3.2-3.4-9.8.6-12.6s8.3-1.4,10.7,2.1Z"/>
  <line class="st0" x1="68.6" y1="77" x2="117.5" y2="77"/>
  <line class="st0" x1="68.6" y1="119.1" x2="117.5" y2="119.1"/>
  <line class="st0" x1="68.6" y1="162.6" x2="117.5" y2="162.6"/>
</svg>