<?xml version="1.0" encoding="UTF-8"?>
<svg id="_レイヤー_1" xmlns="http://www.w3.org/2000/svg" version="1.1" viewBox="0 0 148.9 199.8">
  <!-- Generator: Adobe Illustrator 30.5.1, SVG Export Plug-In . SVG Version: 2.1.4 Build 3)  -->
  <defs>
    <style>
      .st0 {
        fill: none;
        stroke: #000;
        stroke-linecap: round;
        stroke-linejoin: round;
        stroke-width: 6px;
      }
    </style>
  </defs>
  <path d="M148.4,190.5c0,4.5-5.2,9.3-9.7,9.3H9.9c-5.1-1.3-8.8-5.1-9.9-10.3V38.4c0-4.4,4.9-9.3,9-9.4l23.7-.4,1.3-4.7c1-3.8,4.6-4.6,7.9-4.6h14l.8-4.5c.2-1.4,1.2-3.6,1.9-4.9,2.3-4.7,6.2-7.3,11-8.8s6.6-1.4,10.1,0l4.2,1.8c4.7,2,8.6,10.1,9.1,16.4h13.7c2.6,0,5.3.4,6.8,2.2s2.4,4.1,2,7.1l24.3.3c4,0,8.7,4.3,8.8,8.4l.3,71.7v8.9l-.4,72.6h-.1ZM109.7,38.9l.2-10.4c0-.8-.9-2.6-1.5-3.2h-16.9c-1.3-.3-3.5-2.2-4.5-3.2,1.1-6.6-2.4-13-8.6-15.1s-10.6,0-13.6,4.1c-2.3,3.2-3.4,6.4-2.5,10.6-.8,1.1-2.7,3-4,3.6h-16.4c-1.6,0-2.8,1.1-2.7,2.7l.2,11h70.3ZM142.8,189.6V39.5c0-6-9.3-4.6-9.6-4.6l-3.6-.4h-13.9l-.3,7c-.7,1.5-3.7,3.7-5.5,3.7h-17.6l-14.3-.2h-7.8l-19-.4c-3.4,0-6.4-.4-9.8,0s-6.1-.5-7.6-3.3v-4.3c0-1.2-.9-2.7-2.2-2.7l-13.1.2-8.3.6c-2.1,0-4.6,3-4.6,5.4v13.2c0,0,.5,13.3.5,13.3v10.5l.2,31.1.2,15.5-.6,7.1c-.5,6.4,0,12.2.3,18.6l.2,5.4v21.8l.3,12.6c0,1.5,2.4,4.2,4.5,4.2h125.9c3,0,4.4-1,5.7-4.4h0Z"/>
  <path d="M43.9,170c-4.8,4.1-12.1,4.1-17.3-.5s-3-3.6-3.7-6.1c-1.7-5.9,1.3-12.6,6.6-15.4,4.3-2.3,8.1-2.3,12.2,0,4.2,2.2,6.6,6.2,7,11.1.4,4.4-1.5,8.1-4.9,11h.1ZM31.9,166.7c2.9,1.6,4.9,1.5,7.8-.2s5.2-8,2.3-11.7-3.8-3.8-6-3.8c-4.6,0-9.6,5.3-8.1,11s1.8,3.5,4,4.7Z"/>
  <path d="M45,110.3c5.3,5.4,4.7,14.5-.2,18.5-5.6,4.7-13.1,4.6-18.4-.5s-4.7-8.3-3.3-13,4.9-7.7,9.9-9.2c4.3-1.3,8.8,1.1,11.9,4.3h0ZM41.8,114.7c-2.4-3.5-6.9-4.8-10.7-2.1s-4.3,9.5-.6,12.6c2.9,2.4,6.2,2.7,9.2,1s4.6-8,2.2-11.5h0Z"/>
  <path d="M45,68.5c5.3,5.4,4.7,14.5-.2,18.5-5.6,4.7-13.1,4.6-18.4-.5s-4.7-8.3-3.3-13,4.9-7.7,9.9-9.2c4.3-1.3,8.8,1.1,11.9,4.3h0ZM41.8,72.8c-2.4-3.5-6.9-4.8-10.7-2.1s-4.3,9.5-.6,12.6c2.9,2.4,6.2,2.7,9.2,1s4.6-8,2.2-11.5h0Z"/>
  <path d="M74.3,24.1c-3.2,0-5.4-3.1-5.4-5.6s1.8-5.6,5.2-5.8,5.4,2.6,5.5,5.2-1.6,6.2-5.3,6.1h0Z"/>
  <line class="st0" x1="68.6" y1="77.1" x2="117.5" y2="77.1"/>
  <line class="st0" x1="68.6" y1="119.2" x2="117.5" y2="119.2"/>
  <line class="st0" x1="68.6" y1="162.7" x2="117.5" y2="162.7"/>
</svg>