<?xml version="1.0" encoding="UTF-8"?>
<svg id="_レイヤー_1" xmlns="http://www.w3.org/2000/svg" version="1.1" viewBox="0 0 191.3 201.6">
  <!-- Generator: Adobe Illustrator 30.5.1, SVG Export Plug-In . SVG Version: 2.1.4 Build 3)  -->
  <defs>
    <style>
      .st0 {
        stroke-width: 3px;
      }

      .st0, .st1, .st2 {
        stroke-miterlimit: 10;
      }

      .st0, .st1, .st2, .st3 {
        stroke: #0b0b0b;
      }

      .st2 {
        fill: #efefec;
      }

      .st3 {
        stroke-miterlimit: 10;
        stroke-width: 1px;
      }
    </style>
  </defs>
  <path class="st0" d="M144.5,195.1l-13.1,1-4.2.7-7,.7-9.7,1-7.2.5-6.1.9c-3.2.5-5.7-.2-8.8-1l-10.6-3-5.3-1.1-10.5-2.9-8.3-2.3c-1.4-.4-2.5-1.6-3.1-3.2l-6,.2c-2.5,0-4.6.8-7.1.7s-4.4.6-6.4.7l-11.6.7c-2.2.1-4.9,1-7,0-9.4-4.3-11.9-13.1-10.7-23.2l.9-7,1-7.4.9-6.1.9-4.6.9-4.6,1.1-5,3.5-11.9c1.1-3.7,2.9-7,5-10.3,3.1-4.8,7.7-8.2,13-10.5s5.4-2.4,8.5-3.1l3.6-.9c5.3-1.3,9.4-3.1,9.1-9-3.3.3-5.9-.9-8.1-3.2-5.6,1.1-7.8.6-11.9-3.3-2.8.4-5.2-.3-7.4-2.3-4.5-4.1-5.7-10.7-3.5-16.6,2.6-7.1,9.6-9.5,8.7-18,.6-1.9.9-3.9,1.3-5.7,1.2-7,4.1-12.8,8.4-18.3,6-7.8,17.2-13.7,26.7-15.8,5.3-1.1,10.6,0,15.8,1.4s6.4,2.3,9.5,4l6.1,5.2c2.7,1.5,5.3,2.7,7.6,5,7.1,7.1,10.9,20.1,9.1,30.2-2.1,4.5-2.3,9-1,13.9,2.7,5.6,2.7,12.3-.7,17.5s-3.4,3.8-6.3,3.4-2.2,1.2-2.8,1.8c-2.2,2.4-5,1.7-7.9,1.4l-4.3-.5c-2.2.8-4.3,1.8-6.5,1.9l-6.7.3-1,5.1c-.2.8.9,2.6,1.4,3.4,14.6,5.1,22.9,9.3,26.8,25l.9,3.8,1.6,5.2c1.9-1.6.7-2.3,5.2-4.1s51-3.6,51-3.6l19.9-.7c8.9-.5,7.9,2.7,7.3,5.5l-5.1,23.3-3.1,13.8-.8,3.9-1,4.5-1,4.1-1,4.2-.9,3.6c.1,5.6-3.8,8.5-9,9l-12.4,1-10.5.8h0Z"/>
  <path class="st1" d="M144.5,195.1l-13.1,1-4.2.7-7,.7-9.7,1-7.2.5-6.1.9c-3.2.5-5.7-.2-8.8-1l-10.6-3-5.3-1.1-10.5-2.9-8.3-2.3c-1.4-.4-2.5-1.6-3.1-3.2l-6,.2c-2.5,0-4.6.8-7.1.7s-4.4.6-6.4.7l-11.6.7c-2.2.1-4.9,1-7,0-9.4-4.3-11.9-13.1-10.7-23.2l.9-7,1-7.4.9-6.1.9-4.6.9-4.6,1.1-5,3.5-11.9c1.1-3.7,2.9-7,5-10.3,3.1-4.8,7.7-8.2,13-10.5s5.4-2.4,8.5-3.1l3.6-.9c5.3-1.3,9.4-3.1,9.1-9-3.3.3-5.9-.9-8.1-3.2-5.6,1.1-7.8.6-11.9-3.3-2.8.4-5.2-.3-7.4-2.3-4.5-4.1-5.7-10.7-3.5-16.6,2.6-7.1,9.6-9.5,8.7-18,.6-1.9.9-3.9,1.3-5.7,1.2-7,4.1-12.8,8.4-18.3,6-7.8,17.2-13.7,26.7-15.8,5.3-1.1,10.6,0,15.8,1.4s6.4,2.3,9.5,4l6.1,5.2c2.7,1.5,5.3,2.7,7.6,5,7.1,7.1,10.9,20.1,9.1,30.2-2.1,4.5-2.3,9-1,13.9,2.7,5.6,2.7,12.3-.7,17.5s-3.4,3.8-6.3,3.4-2.2,1.2-2.8,1.8c-2.2,2.4-5,1.7-7.9,1.4l-4.3-.5c-2.2.8-4.3,1.8-6.5,1.9l-6.7.3-1,5.1c-.2.8.9,2.6,1.4,3.4,14.6,5.1,22.9,9.3,26.8,25l.9,3.8,1.6,5.2c1.9-1.6.7-2.3,5.2-4.1s51-3.6,51-3.6l19.9-.7c8.9-.5,7.9,2.7,7.3,5.5l-5.1,23.3-3.1,13.8-.8,3.9-1,4.5-1,4.1-1,4.2-.9,3.6c.1,5.6-3.8,8.5-9,9l-12.4,1-10.5.8h0ZM40.3,100.7c4.2,7.7,6.6,15,8.2,23.3,1.8.4,3.6.8,5.3.8l23-.2c1.9,0,4-.7,6.1-.9,0-4.9.2-10-.4-15l-.7-6.1-6.4-2.8c-5.6-2.5-4.3-6.3-3.8-13.4l-3.1-2.4c-.9-.7-.7-2.4,0-3.1s2.3-.5,3.1,0c5.3,3.7,11.4,2.5,16.4-.9s7.4-8.4,8.6-14.2l.8-3.8.9-4.2,1.4-6.6c1.6-2.3,1.7-5.1.4-7.5,0-5.3-2.2-10.3-5.5-14.3-3.4,8.4-9.6,13.4-17.9,15.9s-3.1.7-4.4-.5-2.2-.6-3.6,0l-4.8,1.7c-1.7.6-4.3,1-5.6,2-.6,1-1.1,2.2-1.6,2.6s-2.1.3-2.8,0c-.8-3-2.4-4.8-5.5-5.6-3.4,1.5-5.1,5.3-4,9,.6,3.9,3.8,6.9,7.9,6.6,1.6,1.4,1.2,4.7,3.7,9.2s3,3.1,4.3,4.4c1.5,4.4-1.1,9.1-5.4,10.6l-1,4c-1,4.1-4.3,6.7-8.4,7.9l-4.6,1.3-1.5.6c-.3,0,.7,1.2.9,1.6h0ZM50.9,168.2l-13.2-.2-5.5-.9c-6.9-1.1-11.5.6-12.1.2s-1.2-1.6-1.2-2.2,1.1-1.6,1.7-1.8l4.1-1,3.9-.2.9-9.2.9-7.5.5-6.1.7-6.3c0-.7,1-2.1,1.5-1.9l2.4,1.1.9-4.1-.9-6.2c-.9-6.7-3.5-12.6-7-18.6-5.1,2.9-9.5,7-11.8,12.7-4.5,11.1-6.8,22.6-8.6,34.5l-1,6.6-.8,7.4c-.5,4.8-.8,9.2,1.4,13.8s3.9,5.5,7.1,6c3.2.5,5.9-.6,8.8-.7l8.3-.3,4.7-.7,10.2-.8,4.1-.6c-1-3.1-1.4-6.4-.7-9.5s.8-2.4.6-3.4h.1ZM95.2,171.3c.7-.4,1.3-1.2,1.5-1.9l3.3-13.8.8-3.3,2.8-11c.4-1.5.4-2.1,0-3.6l-2.7-8.9-1-4.1-2.2-7.8c-.8-2.9-1.9-5.5-4.9-7.3-.4,3,0,5.8.6,8.8s0,4.7.4,6.5l.9,3.8,1,3.6.8,3.3c.8,3.2,1.1,6.4.2,9.6l-1.2,4c-2.4,4.8-4.4,9.7-5.6,14.7l5.3,7.2v.2h0ZM122.6,192.5l9.6-.9,10.6-1,10.7-.9,11.6-.7c2.3-.1,5.1-.2,6.4-2.4s.9-3.1,1.1-4.4l1-4.8,1-4.5.9-3.8.9-4.2.9-4.1,1-5,.9-4.2.9-4.2.9-4.2,1.3-5.8,2.4-9.1c.1-.5,0-1.7-.3-2.1s-1.4-.8-1.9-.8l-12.1.2-3.7.6-9.2.4-15.7,1.1-12,.8c-4.4.3-8.9,1.1-13.3.7s-6.5,1.7-7.3,5.5l-.9,4.5-.9,3.7-1,4.2-.9,3.7-1,4.5-3.4,13.6-.8,3.2-2.5,10.2-1,4.1-1,4.1-.7,4.4,9.9-.7,10.1-1.1,7.4-.7h.1ZM76.8,170.5c6.3,3.8,8.5,7.5,9.9,8s.9-.5.8-.8-.4-.9-.6-1.1l-1.9-2.2c-1.8-2.1-4-4-6.5-5.2s-.3-2.1.3-2.4c2-1.2,7.1,2.3,8.2,3.7l3.8,5.1,1.4.4c.3,0,.6-1.6.4-1.9-5.2-8-13.6-13.7-23.1-9.8l-6.1,2.5c-2.5,1-4.4,2.1-7.2,2.5l-2.3,2.7v5.2c4.5,2.7,10.8,1.3,16.1-.4,3.6-1.2,7.6.8,9.5,3.6s1.9.5,1.9,0l-.2-1.5c-2-2.6-4.3-3.9-7.2-5.4s-.7-2.4,0-2.9,2-.6,2.9,0h-.1ZM85.2,184.3l4.9-1.1,3.4-.8v-2.4c-1.9.5-3,1.2-4.4,2.3l-5.2.2-.2,1.6c0,.3,1.1.2,1.5.2ZM90.9,191.6l-5.8-1.5-10-2.6-7.4-2.3v-2l9.5.6c-1.5-3.4-4.6-3.5-7.9-2.6l-5.5,1.6c-2.6.7-4.7.8-7.4-.1s-1.9,1.1-1.7,1.8,1,1.3,1.9,1.6l11.6,2.9,21.7,5.8c1,0,1.9-2.5,1.1-3.1h0Z"/>
  <path class="st2" d="M122.6,192.5l-7.4.7-10.1,1.1-9.9.7.7-4.4,1-4.1,1-4.1,2.5-10.2.8-3.2,3.4-13.6,1-4.5.9-3.7,1-4.2.9-3.7.9-4.5c.8-3.8,3.3-5.4,7.3-5.5,8.8-.3,54-3.6,54-3.6l12.1-.2c.5,0,1.6.4,1.9.8s.4,1.6.3,2.1l-2.4,9.1-1.3,5.8-.9,4.2-.9,4.2-.9,4.2-1,5-.9,4.1-.9,4.2-.9,3.8-1,4.5-1,4.8c-.3,1.3-.5,3.4-1.1,4.4-1.4,2.2-4.1,2.3-6.4,2.4l-11.6.7-10.7.9-10.6,1-9.6.9h-.2ZM149.7,161.6c1.8-3.7-1-9-5.4-9s-6.7,3.7-7.4,6.7c-.6,2.6-.4,4.4,1.1,6.3s3.3,2.6,5.3,2.2c3.2-.7,4.9-3.1,6.4-6.2h0Z"/>
  <path class="st2" d="M40.3,100.7c-.2-.3-1.3-1.4-.9-1.6l1.5-.6,4.6-1.3c4.2-1.2,7.4-3.8,8.4-7.9l1-4c4.3-1.5,6.9-6.2,5.4-10.6-1.3-1.3-3.4-2.8-4.3-4.4-2.4-4.5-2.1-7.8-3.7-9.2-4.2.4-7.3-2.6-7.9-6.6-.3-1.9-.5-3.6.4-5.4s.9-1.6,1.6-2.2c1.1-1.1,3.2-1.1,4.4-.3s2.6,2.7,3.1,4.6c.7.2,2.3.3,2.8,0s1.1-1.6,1.6-2.6c1.3-1.1,3.9-1.4,5.6-2l4.8-1.7c1.4-.5,2.3-1.1,3.6,0s2.7,1,4.4.5c8.3-2.5,14.6-7.4,17.9-15.9,3.3,4,5.6,9,5.5,14.3,1.3,2.4,1.2,5.2-.4,7.5l-1.4,6.6-.9,4.2-.8,3.8c-1.2,5.8-3.7,10.9-8.6,14.2s-11.1,4.6-16.4.9-2.3-.9-3.1,0-.8,2.5,0,3.1l3.1,2.4c-.5,7.1-1.8,10.9,3.8,13.4l6.4,2.8.7,6.1c.6,5,.3,10.1.4,15-2.1.2-4.2.9-6.1.9l-23,.2c-1.7,0-3.5-.4-5.3-.8-1.5-8.3-3.9-15.6-8.2-23.3h0ZM77.5,54.1c.7-.8.8-2.5.2-3.4s-2.1-1.5-2.7-1c-1,1-1.9,1.9-2,2.7s.8,2.1,1.3,2.6,1.7.6,2,.3l1.1-1.3h0Z"/>
  <path class="st2" d="M50.9,168.2c.2,1-.3,2.2-.6,3.4-.8,3-.3,6.3.7,9.5l-4.1.6-10.2.8-4.7.7-8.3.3c-2.8.1-5.9,1.1-8.8.7s-5.9-3.3-7.1-6c-2.1-4.6-1.9-9-1.4-13.8l.8-7.4,1-6.6c1.7-11.8,4.1-23.4,8.6-34.5s6.7-9.8,11.8-12.7c3.5,6,6.1,11.9,7,18.6l.9,6.2-.9,4.1-2.4-1.1c-.6-.3-1.4,1.2-1.5,1.9l-.7,6.3-.5,6.1-.9,7.5-.9,9.2-3.9.2-4.1,1c-.6.2-1.7,1.1-1.7,1.8s.6,1.8,1.2,2.2,5.2-1.3,12.1-.2l5.5.9,13.2.2h-.1Z"/>
  <path class="st2" d="M95.2,171.3l-5.3-7.2c1.1-5,3.1-10,5.6-14.7l1.2-4c.9-3.2.6-6.4-.2-9.6l-.8-3.3-1-3.6-.9-3.8c-.4-1.8,0-4.5-.4-6.5-.6-3-1-5.7-.6-8.8,3,1.8,4.1,4.5,4.9,7.3l2.2,7.8,1,4.1,2.7,8.9c.4,1.5.5,2.1,0,3.6l-2.8,11-.8,3.3-3.3,13.8c-.2.7-.8,1.5-1.5,1.9v-.2h0Z"/>
  <path class="st2" d="M76.8,170.5c-.9-.6-2.1-.6-2.9,0s-1,2.4,0,2.9c2.9,1.5,5.2,2.9,7.2,5.4l.2,1.5c0,.4-1.6.3-1.9,0-1.9-2.7-5.9-4.8-9.5-3.6-5.3,1.7-11.6,3.1-16.2.4v-5.2l2.4-2.7c2.8-.4,4.7-1.5,7.2-2.5l6.1-2.5c9.5-3.9,17.9,1.8,23.1,9.8s0,2-.4,1.9l-1.4-.4-3.8-5.1c-1.1-1.5-6.2-4.9-8.2-3.7s-.9,2.1-.3,2.4c2.5,1.2,4.7,3.1,6.5,5.2l1.9,2.2c.2.2.5.9.6,1.1s-.5.8-.8.8c-1.4-.5-3.6-4.2-9.9-8h.1Z"/>
  <path class="st2" d="M90.9,191.6c.8.6,0,3-1.1,3.1l-21.7-5.8-11.6-2.9c-.9-.2-1.7-.7-1.9-1.6s1-2.1,1.7-1.8c2.7.9,4.8.8,7.4.1l5.5-1.6c3.3-.9,6.5-.8,7.9,2.6l-9.5-.6v2l7.4,2.3,10,2.6,5.8,1.5h0Z"/>
  <path class="st2" d="M85.2,184.3c-.3,0-1.5.2-1.5-.2l.2-1.6,5.2-.2c1.4-1.2,2.5-1.8,4.3-2.3v2.4l-3.3.8s-4.9,1.1-4.9,1.1Z"/>
  <path class="st2" d="M23.4,69.3c-3.6-2.1-2.3-10.5,2.6-12.7l-2.6,12.7Z"/>
  <path class="st1" d="M149.7,161.6c-1.5,3.1-3.2,5.5-6.4,6.2s-4.2-.7-5.3-2.2-1.7-3.6-1.1-6.3c.7-3.1,3.8-6.7,7.4-6.7s7.2,5.3,5.4,9h0ZM145.8,157.7c-.4-.5-2.2-1-2.6-.5l-2,1.9c-.5.5-.6,2.3-.3,3s1.9,1.3,2.7,1.1c1.4-.4,3.4-4,2.3-5.4h0Z"/>
  <path class="st1" d="M87.6,65.1c-.5.2-1.9,0-2.3-.4s-.7-1.3-.4-1.7l1.7-2c-.5-1.1-1-2.4-1.1-3.3-.2-1.7.8-2.8,2.2-2.8s1.7,1.4,2.2,2.7c1.1,2.8,1,6.1-2.2,7.4h0Z"/>
  <path class="st1" d="M83.4,73.8c-.7,0-1.5,0-2,0-.7-.2-1.3-.4-2-.5-.5,0-1.3-1.3-1.3-1.8.2-1.8,3.7-2.2,6.2-1.3s1.2,1.7.8,2.1c-.3.4-.7,1.1-1.2,1.4s-.4.2-.6.2h0Z"/>
  <path class="st2" d="M145.8,157.7c1.1,1.4-.8,5-2.3,5.4s-2.3-.4-2.7-1.1-.3-2.5.3-3l2-1.9c.5-.5,2.2,0,2.6.5h0Z"/>
  <ellipse class="st3" cx="49.9" cy="53.7" rx="1.3" ry="2.9" transform="translate(-9.6 10.8) rotate(-11.3)"/>
  <ellipse class="st1" cx="75.7" cy="52.6" rx="2.9" ry="3.3"/>
  <ellipse class="st1" cx="94.4" cy="55.6" rx="2.3" ry="2.6"/>
</svg>