<?xml version="1.0" encoding="UTF-8"?>
<svg id="_レイヤー_1" xmlns="http://www.w3.org/2000/svg" version="1.1" viewBox="0 0 191.2 201.6">
  <!-- Generator: Adobe Illustrator 30.5.1, SVG Export Plug-In . SVG Version: 2.1.4 Build 3)  -->
  <defs>
    <style>
      .st0 {
        fill: #0b0b0b;
      }
    </style>
  </defs>
  <path class="st0" d="M190.3,121.9c-1.3-1.6-3.9-2.1-8.3-1.9l-19.9.7c-4.8.2-46.9,1.9-51.5,3.7-2.3.9-3.3,1.6-4,2.4l-.8-2.5-.9-3.8c-4.1-16.5-13-20.9-27.3-25.9-.8-1.3-.9-1.8-.9-1.9l.8-3.9,5.5-.2c2,0,3.9-.8,5.6-1.5.3-.1.6-.2,1-.4l4,.5c.3,0,.7,0,1,.1,2.7.3,5.7.7,8.1-1.9.4-.4.6-1,.7-1.3,0,0,0,0,0,0,.1,0,.4,0,.8,0,.5,0,.8.2,1.2.3,2.7.7,3.7,0,6.5-4.3,3.5-5.4,3.8-12.6.9-18.8-1.2-4.7-.9-8.8.9-12.7v-.2c0,0,.1-.2.1-.2,1.9-10.6-2.2-24.2-9.5-31.5-2.1-2.1-4.4-3.3-6.6-4.5-.4-.2-.8-.4-1.2-.6l-6-5.1-.3-.2c-.4-.2-.8-.4-1.1-.6-2.4-1.4-4-2.2-8.7-3.5-4.9-1.3-10.6-2.6-16.5-1.4-9,2-21,7.8-27.6,16.3-4.8,6.1-7.1,12.2-8.7,18.9-1.6,6.9-1.1,8.5-1.6,10.2-.4,1.5-.8,3.2-2.1,4-12.3,8.1-9.6,20.9-2.3,27.5,2.3,2.1,4.9,3,7.9,2.8,3.9,3.5,6.5,4.3,11.9,3.4,2.1,2,4.4,3,7.1,3.1-.4,3.5-3.1,4.8-7.9,6l-3.6.9c-3,.7-3.4.9-7.6,2.7l-1.2.5c-6,2.6-10.6,6.3-13.7,11.1-1.9,2.9-3.9,6.5-5.2,10.7l-3.5,11.9-1.1,5.1-1.8,9.3-.9,6.1-1.9,14.4c-1.1,9.1.9,16.1,5.8,20.8,2.6,2.5,4.8,4.4,13.5,4l30.1-2.3c.8,1.6,2.1,2.7,3.6,3.1l18.9,5.2,5.2,1.1,10.6,3h.4c2.3.7,4.4,1.2,6.7,1.2s1.5,0,2.4-.2l70.2-6.5c6.5-.6,10.4-4.5,10.4-10.3l2.9-11.8,1-4.5.8-3.9,3.1-13.8,5.1-23.3v-.3c.4-1.5.8-3.5-.5-5.1ZM23.9,70c-.9-.9-2.1-2.3-2.1-5.6s1.2-5.2,3.4-6.7c0,0-1.1,3.1-1.4,6.2-.3,3.1,0,6.2,0,6.2ZM50.3,180.7l-3.5.5-14.9,1.5s-15.3,1.2-17,1c-2.8-.4-5.6-3.2-6.7-5.7-2.1-4.6-1.8-9-1.4-13.5l.8-7.4,1-6.6c2-14.2,4.7-24.8,8.6-34.4,3.5-8.7,5.5-9.6,8.8-11,.7-.3,1.5-.7,2.4-1.2,3.9,6.7,5.9,12.3,6.7,18l.9,6.1-.7,3.4-1.8-.8c-.3-.1-.6-.1-.8,0-.7.4-1.3,1.6-1.4,2.3l-.7,6.3-.5,6.1-.9,7.5-.9,8.8-3.6.2-4.1,1c-.7.2-2,1.3-2,2.3s.7,2.1,1.4,2.6c.4.2.9.2,2.1,0,2.1-.3,5.6-.8,10.2,0l5.6.9,12.7.2c0,.6-.2,1.3-.4,2,0,.3-.2.6-.2.9-.7,2.6-.5,5.6.5,9.2ZM48.9,123.7c-1.6-8.7-4.1-15.8-8.1-23h0c0-.1,0-.2,0-.2,0,0-.2-.2-.3-.4-.1-.1-.4-.4-.5-.6l1.1-.4,4.6-1.3c4.7-1.3,7.8-4.3,8.7-8.3l.9-3.7c4.5-1.7,7-6.7,5.5-11.1h0c0-.1,0-.2,0-.2-.4-.4-.9-.8-1.4-1.3-1.1-.9-2.3-2-2.8-3-1.2-2.2-1.7-4.1-2.1-5.6-.4-1.6-.8-2.9-1.7-3.7h-.2c0-.1-.2-.1-.2-.1-3.7.4-6.8-2.2-7.4-6.2-.3-2-.5-3.5.4-5.1.7-1.4.8-1.5,1.2-1.8,0,0,.2-.1.3-.3.9-.9,2.8-.9,3.8-.2,1,.7,2.4,2.4,2.9,4.3v.3c0,0,.3,0,.3,0,.7.2,2.5.4,3.2,0,.5-.3,1-1.2,1.6-2.5v-.2c.9-.6,2.3-1,3.6-1.3.7-.2,1.3-.3,1.9-.5l4.8-1.7c.2,0,.4-.1.6-.2,1.1-.4,1.7-.6,2.5.1,1.6,1.3,3.3,1.1,4.9.6,8.8-2.6,14.7-7.7,17.9-15.4,4,5.9,5.7,10.5,5.7,13.9,0,8.1-1,11.3-3.5,19.8s-4.9,12.5-9.3,15.4c-2.6,1.8-9.4,5.4-15.8.9-2.8-2-3.3-2.2-3.8-1.8-.4.3-.2.8-.1,1.2,0,.2.2.7.1.8-.5.6-.8,1.5-.7,2.3,0,.7.3,1.2.8,1.5l2.9,2.2c0,.9-.1,1.7-.2,2.5-.5,5.3-.8,8.8,4.3,11.1l6.1,2.7.7,5.8c.4,3.4.4,7,.4,10.4,0,1.4,0,2.8,0,4.1-.8,0-1.5.2-2.3.4-1.2.2-2.3.5-3.3.5l-23,.2c-1.5,0-3.2-.4-4.9-.7ZM90.6,193.1c-.2.6-.5,1.1-.8,1.2l-21.6-5.8-11.6-2.9c-.5-.1-1.3-.4-1.5-1.2,0-.3.2-.7.5-1,.2-.2.3-.2.5-.2s0,0,0,0c3,1,5.2.8,7.7.1l5.5-1.6c3.5-1,5.7-.5,6.9,1.6,0,0-7.6-.9-8.9.2s-.3,2.1-.3,2.1l23.4,6.5h0c.1.1.2.5,0,1.1ZM92.9,182.1l-2.9.7s-5.5,1.1-5.8,1.1v-.9c.1,0,4-.1,4.9-.4,2.1-.7,2.4-1.4,3.8-1.9v1.3ZM93.3,176.4c-.8-.8-.9-.9-1.1-.9l-1.2-.4-3.7-5c-1.1-1.5-6.5-5.3-8.9-3.8-.9.6-1.4,1.2-1.4,1.8,0,.8.8,1.3,1.1,1.4,2.2,1.1,4.4,2.8,6.3,5.1l1.9,2.2c.1.1.3.6.4.8h0c0,0-.2.2-.2.2-.4-.2-1-.8-1.8-1.6-1.5-1.5-3.8-3.8-7.6-6.1v-.2h-.5c-1-.5-2.3-.5-3.2.2-.6.4-.9,1.4-.9,2.2,0,.7.4,1.3.9,1.5,3,1.6,5.1,2.9,7,5.2v1.1c-.2,0-.7,0-.9-.1-2-2.8-6.2-5-10-3.7-4.9,1.6-11.1,3-15.5.6,0,0-1.1-2.2,0-4.7.7-1.7,2.2-2.4,2.2-2.4,2.1-.3,3.7-1,5.4-1.8.6-.2,1.1-.5,1.8-.7l6.1-2.5c8-3.3,16.4.3,22.5,9.6.6.9,1,1.6,1.4,2.2,0,0,0,0,0,0ZM90.4,164c1-4.6,2.9-9.4,5.5-14.4l1.2-4c.8-2.9.8-6-.2-9.9l-.8-3.3-1-3.6-.9-3.8c-.2-.8-.2-1.9-.2-3.1s0-2.4-.2-3.4c-.5-2.4-.9-5-.7-7.8,2.2,1.6,3.2,3.8,4,6.6l2.2,7.8,1,4.1,2.7,8.9c.4,1.4.5,1.9,0,3.3l-2.8,11-4.1,17.1c-.1.4-.4.9-.8,1.3l-5-6.7ZM184.4,128.3l-2.4,9.1-1.3,5.8-2.7,12.6-1,5-1.8,8.3-.9,3.8-1,4.5-1,4.8c0,.4-.2.8-.3,1.3-.2,1.1-.4,2.3-.8,2.9-1.2,2-3.7,2.1-6,2.2l-69.5,5.9.6-3.7,8.7-35.2,1-4.5,2.8-11.6.9-4.5c.7-3.4,2.9-5,6.8-5.1,8.7-.3,53.6-3.6,54-3.6l12.1-.2c.4,0,1.3.4,1.5.6.2.2.3,1.2.2,1.7Z"/>
  <path class="st0" d="M137.6,166s0,0,0,0c.9,1.3,1.9,2.6,4.1,2.6s1,0,1.7-.2c3.6-.8,5.3-3.6,6.7-6.5,1-2,.8-4.5-.5-6.6-1.2-2-3.2-3.1-5.3-3.1-4.6,0-7.1,3.8-7.9,7.1,0,0,0,0,0,0,0,0,0,0,0,0,0,0,0,0,0,0-.7,2.9-.3,4.8,1.2,6.7,0,0,0,0,0,0ZM143.3,162.7c-1,.3-1.7,0-2.1-.9-.4-.7-.3-2,.1-2.7.4-.7,1.1-1.5,1.9-1.7.6-.2,1.8.2,2.1.6h0c.3.5.3,1.2,0,2-.4,1.3-1.4,2.5-2,2.7Z"/>
  <path class="st0" d="M90.2,63.7c1.2-1.8.9-4.2.1-6.2,0-.2-.1-.3-.2-.5-1.1-3-5-2.6-4.6.3.1.9,1.5,2.3,1.2,3.7s-.9,1.3-1.5,1.5c-1.5.5-.8,2.1-.3,2.6,2.1,1.9,4.8-.7,5.3-1.4Z"/>
  <path class="st0" d="M78.1,72.6c.9,1.2,2.3,1.7,3.5,1.8s3.2.6,3.7-1.5.1-.2.2-.2h.1c.3-.4.8-.9.7-1.5-.1-.6-.7-1-1.8-1.4-2-.7-4.5-.6-5.8.2-1.2.7-1,2-.5,2.7Z"/>
  <path class="st0" d="M49.2,50.4c-.3,0-.9.3-1.1,1.4-.1.7-.1,1.5,0,2.3s.5,1.6.9,2.1c.5.7,1,.9,1.4.9s.2,0,.2,0c.3,0,.9-.3,1.1-1.4.1-.7.1-1.5,0-2.3-.3-1.7-1.3-3.2-2.4-3Z"/>
  <path class="st0" d="M75.7,56.1c1.7,0,3-1.5,3-3.4s-1.4-3.4-3-3.4-3,1.5-3,3.4,1.4,3.4,3,3.4Z"/>
  <path class="st0" d="M94.4,58.7c1.5,0,2.8-1.4,2.8-3.1s-1.3-3.1-2.8-3.1-2.8,1.4-2.8,3.1,1.3,3.1,2.8,3.1Z"/>
</svg>