<?xml version="1.0" encoding="UTF-8"?>
<svg id="_レイヤー_1" xmlns="http://www.w3.org/2000/svg" version="1.1" viewBox="0 0 212 203.9">
  <!-- Generator: Adobe Illustrator 30.5.1, SVG Export Plug-In . SVG Version: 2.1.4 Build 3)  -->
  <defs>
    <style>
      .st0, .st1 {
        fill: none;
      }

      .st1 {
        stroke: #0b0b0b;
        stroke-linecap: round;
        stroke-linejoin: round;
        stroke-width: 7px;
      }

      .st2 {
        isolation: isolate;
      }

      .st3 {
        fill: #0b0b0b;
      }
    </style>
  </defs>
  <rect class="st0" x="78.5" width="55" height="55" rx="9" ry="9"/>
  <rect class="st1" x="3.5" y="40.4" width="55" height="55" rx="9" ry="9"/>
  <rect class="st1" x="78.5" y="40.4" width="55" height="55" rx="9" ry="9"/>
  <rect class="st1" x="153.5" y="40.4" width="55" height="55" rx="9" ry="9"/>
  <rect class="st1" x="3.5" y="145.4" width="55" height="55" rx="9" ry="9"/>
  <rect class="st1" x="78.5" y="145.4" width="55" height="55" rx="9" ry="9"/>
  <rect class="st1" x="153.5" y="145.4" width="55" height="55" rx="9" ry="9"/>
  <g class="st2">
    <g class="st2">
      <g class="st2">
        <g class="st2">
          <g class="st2">
            <path class="st3" d="M46.4,83.4h-6.8l-2.7-7h-12.3l-2.5,7h-6.6l12-30.8h6.6l12.3,30.8ZM34.9,71.2l-4.2-11.4-4.2,11.4h8.4Z"/>
          </g>
        </g>
      </g>
    </g>
  </g>
  <g class="st2">
    <g class="st2">
      <g class="st2">
        <g class="st2">
          <g class="st2">
            <path class="st3" d="M93.6,52.6h12.3c2.4,0,4.3.1,5.4.3,1.2.2,2.3.6,3.2,1.3.9.6,1.7,1.5,2.4,2.6.6,1.1.9,2.3.9,3.6s-.4,2.8-1.2,4c-.8,1.2-1.8,2.1-3.2,2.7,1.9.5,3.3,1.5,4.3,2.8s1.5,2.9,1.5,4.6-.3,2.8-1,4.1c-.7,1.3-1.5,2.4-2.7,3.2-1.1.8-2.5,1.3-4.2,1.5-1,.1-3.5.2-7.5.2h-10.5v-30.8ZM99.9,57.7v7.1h4.1c2.4,0,3.9,0,4.5-.1,1.1-.1,1.9-.5,2.5-1.1s.9-1.4.9-2.4-.3-1.7-.8-2.3c-.5-.6-1.3-1-2.3-1.1-.6,0-2.4-.1-5.3-.1h-3.6ZM99.9,70v8.2h5.8c2.2,0,3.7,0,4.3-.2.9-.2,1.7-.6,2.3-1.2.6-.7.9-1.5.9-2.6s-.2-1.7-.7-2.4c-.4-.6-1.1-1.1-1.9-1.4s-2.7-.4-5.5-.4h-5Z"/>
          </g>
        </g>
      </g>
    </g>
  </g>
  <g class="st2">
    <g class="st2">
      <g class="st2">
        <g class="st2">
          <g class="st2">
            <path class="st3" d="M188.7,72.3l6.4,2c-1,3.5-2.6,6.2-4.9,7.9s-5.1,2.6-8.6,2.6-7.9-1.5-10.6-4.4c-2.8-2.9-4.2-7-4.2-12.1s1.4-9.6,4.2-12.6c2.8-3,6.5-4.5,11-4.5s7.2,1.2,9.7,3.5c1.5,1.4,2.6,3.4,3.3,6l-6.5,1.6c-.4-1.7-1.2-3-2.4-4-1.2-1-2.7-1.5-4.4-1.5s-4.4.9-5.9,2.6c-1.5,1.7-2.2,4.5-2.2,8.4s.7,7,2.2,8.8,3.4,2.6,5.8,2.6,3.2-.6,4.5-1.7c1.3-1.1,2.2-2.9,2.7-5.2Z"/>
          </g>
        </g>
      </g>
    </g>
  </g>
  <g class="st2">
    <g class="st2">
      <g class="st2">
        <g class="st2">
          <g class="st2">
            <path class="st3" d="M18.6,157.6h11.4c2.6,0,4.5.2,5.9.6,1.8.5,3.4,1.5,4.6,2.8,1.3,1.4,2.3,3,2.9,5s1,4.4,1,7.3-.3,4.7-.9,6.6c-.8,2.2-1.9,4.1-3.3,5.4-1.1,1-2.5,1.9-4.4,2.5-1.4.4-3.2.7-5.5.7h-11.7v-30.8ZM24.8,162.8v20.4h4.6c1.7,0,3,0,3.8-.3,1-.3,1.8-.7,2.5-1.3.7-.6,1.2-1.6,1.6-3s.6-3.3.6-5.6-.2-4.2-.6-5.5-1-2.3-1.8-3c-.8-.7-1.7-1.2-2.9-1.4-.9-.2-2.6-.3-5.1-.3h-2.8Z"/>
          </g>
        </g>
      </g>
    </g>
  </g>
  <g class="st2">
    <g class="st2">
      <g class="st2">
        <g class="st2">
          <g class="st2">
            <path class="st3" d="M94.8,188.4v-30.8h22.8v5.2h-16.6v6.8h15.5v5.2h-15.5v8.4h17.2v5.2h-23.4Z"/>
          </g>
        </g>
      </g>
    </g>
  </g>
  <g class="st2">
    <g class="st2">
      <g class="st2">
        <g class="st2">
          <g class="st2">
            <path class="st3" d="M171.1,188.4v-30.8h21.1v5.2h-14.9v7.3h12.8v5.2h-12.8v13.1h-6.2Z"/>
          </g>
        </g>
      </g>
    </g>
  </g>
</svg>