<?xml version="1.0" encoding="UTF-8"?>
<svg id="_レイヤー_1" data-name="レイヤー_1" xmlns="http://www.w3.org/2000/svg" version="1.1" viewBox="0 0 225.4 225.4">
  <!-- Generator: Adobe Illustrator 30.4.0, SVG Export Plug-In . SVG Version: 2.1.4 Build 226)  -->
  <path d="M182.5,67.6c-7.7-8.3-18.5-12.5-32.2-12.5h-70.4v24l70.2.2c13.8,0,19.6,6.4,19.6,21.2s-.8,7.2-2.6,10.5c-1.7,3.2-4.1,5.6-7.3,7.5-3.3,1.9-7.1,2.8-11.8,2.8h-30.9v-25.3s-85.7,37.1-85.7,37.1l85.9,37.1v-25c-.1,0,30.9,0,30.9,0,9.3,0,17.6-2.1,24.5-6.4,6.9-4.2,12.2-9.8,15.8-16.7,3.5-6.7,5.3-14.1,5.3-21.8,0-13.7-3.8-24.8-11.4-32.9Z"/>
</svg>