<?xml version="1.0" encoding="UTF-8"?>
<svg id="_レイヤー_1" xmlns="http://www.w3.org/2000/svg" version="1.1" viewBox="0 0 70.7 70.7">
  <!-- Generator: Adobe Illustrator 30.4.0, SVG Export Plug-In . SVG Version: 2.1.4 Build 226)  -->
  <path d="M47.3,30.5c.4,1,.6,2.2.6,3.4s-.3,2.5-.7,3.7c1.8,0,3.3-1.6,3.3-3.5s-1.4-3.3-3.2-3.5h0Z"/>
  <path d="M23.5,30.5c-1.8.2-3.2,1.7-3.2,3.5s1.4,3.4,3.3,3.5c-.4-1.1-.7-2.4-.7-3.7s.2-2.3.6-3.4h0Z"/>
  <path d="M39.2,43.3c-.6-.4-1.2-.6-1.8-.6h-4.1c-.6,0-1.2.2-1.8.6-1.9,1.3-3.2,4.5-3.2,8.4h14.1c0-3.8-1.3-7.1-3.2-8.4ZM35.4,47.6c-.8,0-1.5-.7-1.5-1.5s.7-1.5,1.5-1.5,1.5.7,1.5,1.5-.7,1.5-1.5,1.5Z"/>
  <path d="M34.9,21.6c0,.4,0,2.6,0,2.8h1.2c0-.2,0-1.1,0-2.1.8-.2,1.5-1,1.5-1.9s-.9-1.9-1.9-1.9-1.9.9-1.9,1.9.6,1.7,1.5,1.9l-.2-.7Z"/>
  <path d="M38.8,25.8h-6.8c-4.2,0-7.6,3.6-7.6,8s3.4,8,7.6,8h6.8c4.2,0,7.6-3.6,7.6-8s-3.4-8-7.6-8ZM36.5,38.4h-2.2c-.3,0-.5-.2-.5-.5s.2-.5.5-.5h2.2c.3,0,.5.2.5.5s-.2.5-.5.5ZM30.6,35.6c-.6,0-1.1-.9-1.1-2s.6-2,1.1-2,1.1.9,1.1,2-.6,2-1.1,2ZM40.1,35.6c-.6,0-1.1-.9-1.1-2s.6-2,1.1-2,1.1.9,1.1,2-.6,2-1.1,2Z"/>
</svg>