<?xml version="1.0" encoding="UTF-8"?>
<svg id="_レイヤー_1" data-name="レイヤー_1" xmlns="http://www.w3.org/2000/svg" version="1.1" viewBox="0 0 35.4 35.4">
  <!-- Generator: Adobe Illustrator 30.4.0, SVG Export Plug-In . SVG Version: 2.1.4 Build 226)  -->
  <path d="M18.7,21.8h-.9s0,0-.1,0,0,0-.1,0h-.9c-1.4,0-2.5,2-2.5,4.5h7.1c0-2.5-1.1-4.5-2.5-4.5ZM17.8,24.1l-.7-1.3h1.3l-.6,1.3Z"/>
  <path d="M17.7,21.3c2.5,0,4.5-2,4.5-4.5s-2-4.5-4.5-4.5-4.5,2-4.5,4.5,2,4.5,4.5,4.5ZM19.6,15.8c.3,0,.6.5.6,1.1s-.3,1.1-.6,1.1-.6-.5-.6-1.1.3-1.1.6-1.1ZM15.8,15.8c.3,0,.6.5.6,1.1s-.3,1.1-.6,1.1-.6-.5-.6-1.1.3-1.1.6-1.1Z"/>
</svg>